# xmcd
#
# Track frame offsets: 
#        150
#        19250
#        37548
#        62427
#        85217
#        105447
#        127308
#        143765
#        163061
#        184044
#        203698
#        222298
#        243353
#        266437
#        290654
#
# Disc length: 4190 seconds
#
# Revision: 1
# Processed by: cddbd v1.5.2PL0 Copyright (c) Steve Scherf et al.
# Submitted via: ExactAudioCopy v0.95b2
#
DISCID=d0105c0f
DTITLE=Curtis Mayfield - Love Is The Place and Honesty
DYEAR=2007
DGENRE=R&B
TTITLE0=She Don't Let Nobody (But Me)
TTITLE1=Toot An' Toot An' Toot
TTITLE2=Babydoll
TTITLE3=Love Is The Place
TTITLE4=Just Ease My Mind
TTITLE5=You Mean Everything To Me
TTITLE6=You Get All My Love
TTITLE7=Come Free Your People
TTITLE8=Hey Baby (Give It All To Me)
TTITLE9=Still Within Your Heart
TTITLE10=Dirty Laundry
TTITLE11=Nobody But You
TTITLE12=If You Need Me
TTITLE13=What You Gawn Do?
TTITLE14=Summer Hot
EXTD=Love is the place Tracks 1 to 8 orginally released in 1981\nHones
EXTD=ty Tracks 9 to 15 originally released in 1982
EXTT0=
EXTT1=
EXTT2=
EXTT3=
EXTT4=
EXTT5=
EXTT6=
EXTT7=
EXTT8=
EXTT9=
EXTT10=
EXTT11=
EXTT12=
EXTT13=
EXTT14=
PLAYORDER=
